<svg height="384pt" viewBox="-64 0 384 384" width="384pt" xmlns="http://www.w3.org/2000/svg"><path d="m256 0h-256v89.289062l82.585938 47.191407c-48.195313 18.375-82.585938 64.953125-82.585938 119.519531 0 70.574219 57.425781 128 128 128s128-57.425781 128-128c0-54.566406-34.390625-101.144531-82.585938-119.519531l82.585938-47.191407zm-128 125.566406-32-18.285156v-75.28125h64v75.289062zm-96-93.566406h32v57l-32-18.289062zm192 224c0 52.9375-43.0625 96-96 96s-96-43.0625-96-96c0-51.617188 40.976562-93.726562 92.097656-95.800781h7.804688c51.121094 2.074219 92.097656 44.183593 92.097656 95.800781zm0-185.289062-32 18.289062v-57h32zm0 0"/><path d="m88 232h24v48h-24v32h80v-32h-24v-48h24v-32h-80zm0 0"/></svg>